<?xml version="1.0" standalone="no"?>
<!DOCTYPE svg PUBLIC "-//W3C//DTD SVG 20010904//EN"
 "http://www.w3.org/TR/2001/REC-SVG-20010904/DTD/svg10.dtd">
<svg version="1.0" xmlns="http://www.w3.org/2000/svg"
 width="1116.000000pt" height="206.000000pt" viewBox="0 0 1116.000000 206.000000"
 preserveAspectRatio="xMidYMid meet">

<g transform="translate(0.000000,206.000000) scale(0.100000,-0.100000)"
fill="#000000" stroke="none">
<path d="M966 1981 c-36 -37 -63 -71 -59 -76 4 -4 3 -5 -3 -2 -6 4 -28 -12
-49 -34 -30 -32 -33 -40 -17 -35 12 4 75 7 139 7 79 1 120 4 125 12 6 9 8 9 8
0 0 -8 14 -13 34 -13 34 0 35 1 30 38 -4 40 0 35 10 -10 5 -23 12 -28 38 -28
32 0 31 1 -63 96 -51 52 -101 99 -110 104 -12 7 -31 -7 -83 -59z m133 -101 c0
-9 -4 -8 -9 5 -5 11 -9 27 -9 35 0 9 4 8 9 -5 5 -11 9 -27 9 -35z m-79 -15 c0
-5 -5 -3 -10 5 -5 8 -10 20 -10 25 0 6 5 3 10 -5 5 -8 10 -19 10 -25z"/>
<path d="M1164 1742 c-6 -4 -14 -14 -17 -22 -4 -12 -6 -11 -6 3 -1 12 -9 17
-31 17 -16 0 -30 -2 -30 -6 0 -3 17 -46 38 -97 22 -51 52 -123 67 -162 33 -80
33 -80 41 -72 3 3 -13 69 -36 147 -23 78 -40 144 -37 146 2 2 23 -60 47 -139
40 -133 60 -182 60 -146 0 8 -11 71 -24 140 -13 68 -27 141 -30 162 -7 36 -19
45 -42 29z"/>
<path d="M1213 1728 c3 -13 18 -88 33 -168 30 -163 50 -209 40 -90 -4 41 -11
77 -16 78 -6 2 -10 38 -10 80 0 97 -7 122 -32 122 -16 0 -19 -5 -15 -22z"/>
<path d="M810 1691 c0 -44 3 -48 102 -148 57 -57 106 -103 110 -103 22 0 0 41
-67 126 -42 52 -73 94 -71 94 2 0 35 -37 73 -82 47 -57 69 -77 71 -65 2 10 8
15 13 11 9 -5 -58 107 -98 164 -8 12 -13 22 -10 22 2 0 40 -52 82 -114 43 -63
91 -128 108 -143 26 -25 23 -15 -33 97 -79 158 -63 145 25 -22 38 -71 72 -128
78 -128 5 0 7 6 4 13 -3 6 -33 83 -68 170 l-63 157 -33 0 c-31 0 -33 -2 -23
-22 l11 -23 -17 23 c-18 24 -92 34 -78 10 6 -10 4 -10 -8 0 -9 7 -36 12 -62
11 l-46 -3 0 -45z m50 4 c13 -14 21 -25 18 -25 -2 0 -15 11 -28 25 -13 14 -21
25 -18 25 2 0 15 -11 28 -25z"/>
<path d="M1373 1690 c0 -25 2 -35 4 -22 2 12 2 32 0 45 -2 12 -4 2 -4 -23z"/>
<path d="M675 1700 c-18 -20 -18 -21 3 -43 l22 -21 0 42 c0 23 -2 42 -3 42 -2
0 -12 -9 -22 -20z"/>
<path d="M1390 1682 c0 -25 4 -32 20 -32 11 0 20 6 20 13 0 8 -9 22 -20 32
-20 18 -20 17 -20 -13z"/>
<path d="M630 1655 c-11 -13 -8 -15 20 -15 28 0 31 2 20 15 -7 8 -16 15 -20
15 -4 0 -13 -7 -20 -15z"/>
<path d="M811 1590 c0 -42 3 -47 49 -83 33 -26 58 -37 74 -35 23 3 19 9 -49
83 l-74 80 0 -45z"/>
<path d="M1294 1519 c3 -17 6 -51 6 -75 0 -24 5 -44 10 -44 6 0 10 32 10 75 0
63 -3 75 -16 75 -13 0 -15 -7 -10 -31z"/>
<path d="M1332 1468 c1 -41 3 -56 5 -35 2 20 8 37 14 37 5 0 9 16 9 35 0 24
-5 35 -15 35 -12 0 -15 -14 -13 -72z"/>
<path d="M1377 1533 c-13 -12 -8 -65 5 -61 17 6 29 68 13 68 -6 0 -15 -3 -18
-7z"/>
<path d="M1416 1524 c-9 -23 -7 -54 3 -54 7 0 31 51 31 66 0 12 -29 1 -34 -12z"/>
<path d="M1453 1505 c-9 -28 -8 -35 2 -35 14 0 25 22 25 51 0 31 -16 22 -27
-16z"/>
<path d="M591 1480 c-1 -30 2 -50 9 -50 6 0 10 20 9 50 -1 28 -5 50 -9 50 -3
0 -7 -22 -9 -50z"/>
<path d="M656 1499 c16 -17 50 -42 77 -55 52 -27 66 -44 15 -19 -33 16 -33 16
-10 -2 28 -22 122 -30 122 -10 0 7 -35 36 -77 65 -61 41 -86 52 -117 52 l-40
0 30 -31z"/>
<path d="M736 1521 c5 -4 34 -25 64 -45 43 -28 56 -33 58 -21 2 8 8 15 15 15
6 0 -2 14 -18 30 -24 26 -36 30 -79 30 -29 0 -46 -4 -40 -9z"/>
<path d="M1597 1503 c-4 -3 -7 -18 -7 -31 0 -25 0 -25 22 -6 23 20 17 3 -9
-28 -8 -9 -13 -24 -11 -33 2 -13 10 -9 36 17 l32 34 -28 27 c-16 15 -31 24
-35 20z"/>
<path d="M479 1493 c-1 -5 -1 -11 0 -15 0 -5 -3 -7 -8 -5 -9 2 -214 -194 -371
-356 l-94 -98 29 -26 c17 -15 58 -54 91 -86 l62 -58 105 91 c58 49 108 90 111
90 3 0 6 -24 6 -54 l0 -54 -76 -70 -75 -70 48 -46 c48 -45 48 -46 115 -45 l68
2 -1 178 c0 159 -1 178 -17 182 -16 4 -16 5 1 6 13 1 17 10 17 35 0 33 -2 35
-37 39 l-38 4 38 1 c35 2 37 4 37 36 0 24 -5 36 -17 39 -16 4 -16 5 -1 6 14 1
17 13 17 77 0 68 -2 76 -22 85 l-22 10 23 -5 c21 -4 22 -1 22 55 0 32 -2 59
-5 59 -3 0 -6 -3 -6 -7z m-46 -190 c-7 -2 -19 -2 -25 0 -7 3 -2 5 12 5 14 0
19 -2 13 -5z m10 -80 c-7 -2 -21 -2 -30 0 -10 3 -4 5 12 5 17 0 24 -2 18 -5z
m-30 -180 c-13 -2 -33 -2 -45 0 -13 2 -3 4 22 4 25 0 35 -2 23 -4z m60 -70
c-7 -2 -19 -2 -25 0 -7 3 -2 5 12 5 14 0 19 -2 13 -5z"/>
<path d="M1472 1435 c0 -16 2 -22 5 -12 2 9 2 23 0 30 -3 6 -5 -1 -5 -18z"/>
<path d="M1628 1403 c-25 -27 -36 -47 -36 -70 l-1 -33 57 36 c74 47 79 51 64
66 -8 8 -22 2 -57 -27 -25 -20 -48 -35 -51 -32 -3 3 15 20 40 39 25 18 44 37
42 42 -6 21 -23 14 -58 -21z"/>
<path d="M1000 1416 c0 -9 5 -16 10 -16 6 0 10 4 10 9 0 6 -4 13 -10 16 -5 3
-10 -1 -10 -9z"/>
<path d="M590 1385 c0 -19 5 -35 10 -35 6 0 10 16 10 35 0 19 -4 35 -10 35 -5
0 -10 -16 -10 -35z"/>
<path d="M904 1395 c-8 -19 3 -35 26 -35 19 0 30 17 23 38 -6 17 -42 15 -49
-3z"/>
<path d="M1384 1395 c-8 -19 3 -35 26 -35 19 0 30 17 23 38 -6 17 -42 15 -49
-3z"/>
<path d="M1471 1364 c0 -11 3 -14 6 -6 3 7 2 16 -1 19 -3 4 -6 -2 -5 -13z"/>
<path d="M1660 1330 c-58 -39 -68 -50 -45 -45 l30 6 -27 -16 c-50 -28 -29 -34
33 -9 34 14 66 23 71 22 6 -2 -22 -16 -61 -32 -39 -15 -71 -31 -71 -36 0 -4
56 9 124 28 103 30 121 38 108 48 -11 8 -23 9 -34 3 -9 -5 -23 -9 -30 -8 -7 0
-3 5 10 11 12 6 22 15 22 20 0 21 -33 18 -76 -6 -26 -14 -52 -26 -58 -26 -6 1
15 14 47 31 49 25 56 33 47 45 -7 7 -13 14 -14 14 0 0 -35 -23 -76 -50z"/>
<path d="M598 1311 c2 -17 11 -32 21 -34 14 -4 14 -5 -1 -6 -27 -2 -25 -61 1
-61 10 0 21 7 25 15 3 10 20 15 48 16 l43 1 -50 13 c-70 18 -45 18 48 0 43 -8
103 -15 133 -15 30 0 54 -4 54 -10 0 -5 5 -10 11 -10 6 0 9 5 7 12 -2 6 -38
21 -79 34 -40 12 -65 23 -54 23 11 0 55 -10 98 -24 43 -14 90 -25 105 -25 22
1 17 5 -28 25 -30 13 -48 24 -38 25 9 0 45 -13 80 -29 97 -43 120 -46 53 -7
-74 44 -56 48 20 5 61 -34 75 -33 19 1 -19 12 -33 25 -30 28 3 3 25 -8 48 -23
35 -23 39 -24 24 -7 -26 30 -5 28 22 -1 12 -13 19 -27 15 -32 -5 -4 -2 -5 5
-1 11 6 8 14 -12 35 -15 15 -24 30 -21 32 2 3 -93 5 -213 6 -369 2 -342 0
-342 23 0 11 -4 20 -8 20 -5 0 -7 -13 -4 -29z"/>
<path d="M1185 1291 c-3 -5 -1 -12 5 -16 5 -3 10 -3 10 1 0 3 8 0 18 -7 14
-11 13 -10 -2 9 -22 25 -23 25 -31 13z"/>
<path d="M1433 1283 c0 -9 4 -10 14 -2 7 6 13 12 13 14 0 1 -6 2 -13 2 -8 0
-14 -6 -14 -14z"/>
<path d="M1449 1265 c0 0 -2 -8 -4 -18 -3 -18 -3 -18 18 0 12 10 24 19 26 20
2 1 -36 0 -40 -2z"/>
<path d="M1775 1255 c-22 -8 -74 -24 -115 -36 -103 -30 -73 -35 62 -10 169 32
162 30 148 46 -15 18 -42 18 -95 0z"/>
<path d="M748 1215 c4 -21 10 -25 38 -25 27 0 34 4 34 19 0 13 -10 20 -31 25
-46 9 -47 8 -41 -19z"/>
<path d="M1040 1231 c0 -4 18 -13 41 -20 23 -7 48 -15 58 -18 9 -4 14 -4 11 0
-10 11 -110 46 -110 38z"/>
<path d="M1750 1204 c-135 -27 -155 -32 -148 -39 4 -4 200 10 286 21 42 5 43
6 26 25 -21 23 -9 23 -164 -7z"/>
<path d="M1040 1201 c0 -5 14 -11 31 -15 49 -10 57 -6 19 9 -43 17 -50 17 -50
6z"/>
<path d="M600 1170 c0 -25 4 -30 23 -30 20 0 23 4 19 30 -3 21 -10 30 -23 30
-14 0 -19 -7 -19 -30z"/>
<path d="M920 1190 c0 -5 5 -10 10 -10 6 0 10 5 10 10 0 6 -4 10 -10 10 -5 0
-10 -4 -10 -10z"/>
<path d="M747 1160 c-4 -17 0 -20 34 -20 32 0 39 3 39 20 0 16 -7 20 -34 20
-25 0 -35 -5 -39 -20z"/>
<path d="M1040 1170 c0 -6 17 -10 37 -10 43 0 41 5 -4 13 -19 4 -33 2 -33 -3z"/>
<path d="M1785 1164 c-71 -7 -142 -13 -157 -13 -16 -1 -28 -5 -28 -11 0 -6 74
-10 203 -10 l202 1 -30 24 c-16 14 -37 24 -45 24 -8 -1 -73 -8 -145 -15z"/>
<path d="M920 1150 c0 -5 5 -10 10 -10 6 0 10 5 10 10 0 6 -4 10 -10 10 -5 0
-10 -4 -10 -10z"/>
<path d="M1138 1153 c7 -3 16 -2 19 1 4 3 -2 6 -13 5 -11 0 -14 -3 -6 -6z"/>
<path d="M1053 1143 c9 -2 25 -2 35 0 9 3 1 5 -18 5 -19 0 -27 -2 -17 -5z"/>
<path d="M600 1100 c0 -23 4 -30 20 -30 16 0 20 7 20 30 0 23 -4 30 -20 30
-16 0 -20 -7 -20 -30z"/>
<path d="M750 1104 c0 -20 4 -25 16 -20 9 3 24 6 35 6 12 0 19 7 19 20 0 16
-7 20 -35 20 -31 0 -35 -3 -35 -26z"/>
<path d="M920 1115 c0 -8 5 -15 10 -15 6 0 10 7 10 15 0 8 -4 15 -10 15 -5 0
-10 -7 -10 -15z"/>
<path d="M1053 1113 c9 -2 25 -2 35 0 9 3 1 5 -18 5 -19 0 -27 -2 -17 -5z"/>
<path d="M1604 1113 c4 -5 92 -18 194 -29 103 -12 169 -22 147 -22 -22 -1 -98
5 -170 13 -214 24 -235 17 -58 -21 59 -12 97 -23 82 -23 -14 -1 -64 8 -112 18
-84 18 -116 14 -59 -8 l27 -11 -27 4 c-38 5 -35 -1 8 -19 45 -19 48 -19 40 0
-8 22 3 19 159 -29 l140 -44 17 21 c9 12 14 25 12 29 -3 4 1 8 8 8 7 1 27 12
43 25 l30 25 -50 2 -50 1 44 4 44 4 -29 30 -28 29 -210 0 c-115 0 -206 -3
-202 -7z m341 -98 c66 -17 37 -17 -45 0 -36 7 -51 13 -35 13 17 0 53 -6 80
-13z"/>
<path d="M1138 1103 c6 -2 18 -2 25 0 6 3 1 5 -13 5 -14 0 -19 -2 -12 -5z"/>
<path d="M1040 1090 c0 -5 14 -7 33 -3 45 8 47 13 4 13 -20 0 -37 -4 -37 -10z"/>
<path d="M920 1075 c0 -8 5 -15 10 -15 6 0 10 7 10 15 0 8 -4 15 -10 15 -5 0
-10 -7 -10 -15z"/>
<path d="M773 1073 c-18 -4 -21 -11 -21 -50 0 -41 1 -44 21 -39 12 3 28 6 35
6 6 0 12 9 12 19 0 11 -6 22 -12 24 -10 4 -10 6 0 6 6 1 12 10 12 21 0 20 -5
21 -47 13z"/>
<path d="M1058 1073 c-10 -2 -18 -8 -18 -13 0 -8 13 -5 70 13 19 7 -29 6 -52
0z"/>
<path d="M600 1035 c0 -18 5 -25 20 -25 15 0 20 7 20 25 0 18 -5 25 -20 25
-15 0 -20 -7 -20 -25z"/>
<path d="M1065 1046 l-40 -12 38 -8 c21 -4 35 -11 32 -17 -9 -13 7 -11 27 5
10 7 15 16 11 19 -3 4 0 7 7 7 7 0 11 2 8 5 -9 10 -38 -7 -31 -18 4 -7 0 -8
-11 -4 -10 4 -23 7 -29 7 -7 1 2 7 18 15 37 17 23 17 -30 1z"/>
<path d="M920 1040 c0 -5 14 -10 32 -10 36 0 35 4 -4 14 -17 4 -28 2 -28 -4z"/>
<path d="M927 1014 c-4 -4 -7 -14 -7 -23 0 -11 3 -12 11 -4 6 6 10 16 7 23 -2
6 -7 8 -11 4z"/>
<path d="M1134 1005 c-12 -9 -14 -14 -6 -15 7 0 10 -4 7 -10 -13 -21 13 -9 36
17 17 20 18 23 3 10 -25 -21 -41 -23 -24 -2 16 19 9 19 -16 0z"/>
<path d="M1448 999 c25 -29 30 -48 6 -28 -40 33 -42 15 -6 -51 20 -38 38 -63
40 -56 2 8 -11 35 -29 60 -17 26 -29 50 -26 53 4 3 16 -11 28 -31 11 -20 22
-36 23 -36 2 0 3 13 3 30 0 20 -10 38 -31 57 -28 26 -29 26 -8 2z"/>
<path d="M986 1003 c-12 -12 -6 -33 9 -33 8 0 15 6 15 14 0 17 -14 28 -24 19z"/>
<path d="M1173 976 l-28 -31 28 24 c32 29 36 17 5 -16 -12 -13 -19 -25 -16
-28 2 -3 19 15 36 38 37 52 18 61 -25 13z"/>
<path d="M1600 1002 c0 -7 63 -42 75 -42 16 0 0 22 -25 35 -32 17 -50 19 -50
7z"/>
<path d="M1740 987 c14 -14 61 -42 105 -61 84 -37 91 -51 8 -16 l-48 21 40
-35 c22 -20 42 -35 46 -36 9 0 73 69 67 75 -2 3 -47 18 -99 33 -52 16 -105 32
-119 36 l-25 8 25 -25z"/>
<path d="M600 966 c0 -29 3 -33 20 -29 14 4 20 14 20 34 0 22 -5 29 -20 29
-16 0 -20 -7 -20 -34z"/>
<path d="M773 973 c-18 -3 -23 -11 -23 -34 l0 -29 35 17 c21 10 35 24 35 35 0
18 -5 19 -47 11z"/>
<path d="M1313 935 c0 -27 2 -38 4 -22 2 15 2 37 0 50 -2 12 -4 0 -4 -28z"/>
<path d="M1600 970 c0 -5 18 -22 40 -36 22 -15 38 -29 36 -32 -3 -2 -19 6 -36
18 -17 12 -34 19 -38 15 -7 -6 6 -19 118 -119 53 -46 53 -47 9 -15 -26 19 -65
49 -88 67 -49 40 -58 20 -11 -25 17 -15 38 -39 47 -53 9 -15 -3 -7 -30 19
l-45 43 0 -48 c0 -70 6 -84 34 -84 31 0 31 13 -3 39 -14 12 -24 23 -21 26 2 3
20 -11 38 -30 24 -25 43 -35 64 -35 l29 0 -24 28 -24 27 31 -28 c31 -27 31
-27 49 -7 10 11 14 20 9 21 -5 0 1 4 14 10 30 11 24 20 -51 75 -34 25 -63 49
-63 54 -1 6 -2 17 -3 25 -1 16 -81 61 -81 45z"/>
<path d="M920 955 c0 -8 5 -15 10 -15 6 0 10 7 10 15 0 8 -4 15 -10 15 -5 0
-10 -7 -10 -15z"/>
<path d="M1184 920 c-14 -21 -24 -43 -22 -49 1 -5 15 12 30 40 33 59 29 65 -8
9z"/>
<path d="M1196 890 c-20 -39 -36 -79 -34 -91 2 -14 16 8 40 67 21 48 36 89 35
91 -2 1 -20 -29 -41 -67z"/>
<path d="M1266 934 c-4 -14 -5 -28 -3 -31 3 -2 8 8 11 23 4 14 5 28 3 31 -3 2
-8 -8 -11 -23z"/>
<path d="M1292 940 c0 -14 2 -19 5 -12 2 6 2 18 0 25 -3 6 -5 1 -5 -13z"/>
<path d="M1331 833 c-1 -112 1 -133 14 -133 17 0 17 0 0 150 l-13 115 -1 -132z"/>
<path d="M1357 870 c5 -76 15 -112 27 -99 2 2 -4 45 -14 94 l-19 90 6 -85z"/>
<path d="M1371 945 c-3 -33 33 -175 45 -175 9 0 6 22 -12 83 -31 101 -32 105
-33 92z"/>
<path d="M1393 935 c37 -130 50 -165 62 -165 10 0 4 23 -22 88 -34 84 -51 118
-40 77z"/>
<path d="M1087 934 c-13 -13 -7 -24 14 -24 11 0 19 5 17 12 -5 14 -22 21 -31
12z"/>
<path d="M607 923 c-4 -3 -7 -80 -7 -169 l0 -163 -47 -4 c-47 -3 -47 -3 10 -5
l58 -2 -2 57 c-2 37 1 58 9 61 8 2 12 30 12 83 0 70 -2 78 -17 73 -17 -5 -17
-5 0 6 20 13 24 70 4 70 -8 0 -17 -3 -20 -7z"/>
<path d="M783 915 c-25 -11 -33 -20 -33 -40 0 -30 3 -30 41 -8 19 11 29 26 29
40 0 13 -1 23 -2 23 -2 -1 -18 -7 -35 -15z"/>
<path d="M927 923 c-3 -5 -5 -62 -5 -128 -1 -195 0 -185 -22 -185 -11 0 -34
-15 -52 -33 -18 -18 -23 -21 -10 -7 12 14 22 29 22 34 0 4 -24 6 -54 5 -30 -1
-55 -5 -54 -8 0 -3 0 -27 -1 -53 l-1 -48 -92 0 -93 0 55 -49 c44 -39 58 -47
70 -38 12 9 13 9 3 -3 -11 -11 -8 -19 14 -42 15 -15 30 -28 35 -28 4 0 8 30 8
66 0 62 -1 65 -17 53 -11 -9 -8 -2 5 16 20 25 29 29 60 26 20 -1 39 -5 41 -7
2 -2 3 -37 2 -78 l-2 -74 196 -1 c123 0 195 3 195 9 0 12 -15 12 -217 10
l-151 -2 -4 67 c-2 49 1 70 11 78 11 9 13 9 8 1 -7 -13 41 -50 58 -45 5 1 7
-1 3 -5 -12 -12 12 -34 38 -34 15 0 29 10 38 28 8 15 15 23 16 19 0 -5 -5 -17
-10 -28 -10 -17 -7 -19 29 -19 38 0 40 2 47 38 4 20 11 42 16 49 5 7 16 33 23
58 14 45 14 45 -10 45 -13 0 -29 -8 -35 -17 -10 -15 -11 -15 -6 -2 3 12 -3 18
-20 22 -21 4 -29 -3 -54 -48 -17 -29 -37 -58 -46 -65 -8 -8 1 11 20 41 20 29
36 57 36 61 0 12 -54 10 -66 -2 -13 -13 -13 -20 -15 173 -1 86 -3 157 -5 157
-1 0 -5 -3 -7 -7z m-9 -377 c-13 -19 -24 -33 -26 -31 -5 4 37 65 44 65 2 0 -6
-15 -18 -34z m141 -25 c-12 -23 -24 -39 -26 -38 -2 2 7 22 19 45 13 22 24 39
26 37 2 -2 -6 -22 -19 -44z"/>
<path d="M1230 899 c-7 -19 -26 -61 -42 -93 -28 -59 -36 -106 -19 -106 9 0 41
88 41 115 0 9 9 34 21 56 11 22 19 45 17 51 -3 7 -10 -4 -18 -23z"/>
<path d="M1423 916 c40 -104 72 -168 75 -149 3 20 -62 163 -74 163 -3 0 -4 -6
-1 -14z"/>
<path d="M783 852 c-32 -15 -33 -17 -33 -78 l0 -63 -52 -4 -53 -3 60 -2 c51
-1 64 2 88 23 16 14 27 34 27 50 0 29 -2 30 -38 9 -25 -15 -26 -15 -7 1 11 9
26 20 33 24 8 4 12 19 10 33 -3 25 -3 25 -35 10z"/>
<path d="M1202 738 c-10 -38 -9 -43 13 -35 16 7 21 52 5 62 -5 3 -13 -9 -18
-27z"/>
<path d="M790 715 c-10 -13 -9 -15 9 -15 12 0 21 6 21 15 0 8 -4 15 -9 15 -5
0 -14 -7 -21 -15z"/>
<path d="M1412 708 c2 -13 10 -23 18 -23 8 0 16 10 18 23 3 17 -2 22 -18 22
-16 0 -21 -5 -18 -22z"/>
<path d="M1492 660 c-2 -65 8 -89 28 -65 10 12 10 15 -3 15 -12 0 -17 13 -20
53 l-3 52 -2 -55z"/>
<path d="M670 610 c0 -15 5 -20 18 -18 9 2 17 10 17 18 0 8 -8 16 -17 18 -13
2 -18 -3 -18 -18z"/>
<path d="M1140 549 l-22 -61 23 -24 c12 -13 24 -23 25 -21 2 2 12 40 22 85
l19 82 -22 0 c-18 0 -26 -11 -45 -61z"/>
<path d="M1211 573 c-37 -139 -36 -131 -5 -164 l29 -31 7 44 c5 36 6 33 4 -19
-2 -63 -2 -63 26 -63 24 0 28 4 28 30 0 23 -5 30 -19 30 -15 0 -19 10 -25 56
-3 31 -3 78 0 105 6 45 5 49 -14 49 -16 0 -24 -9 -31 -37z"/>
<path d="M1270 576 c0 -19 -3 -41 -6 -50 -5 -12 0 -16 19 -16 28 0 37 16 37
66 0 30 -3 34 -25 34 -22 0 -25 -4 -25 -34z"/>
<path d="M1330 560 c0 -43 3 -50 20 -50 19 0 20 -7 20 -91 0 -57 4 -88 10 -84
13 8 13 51 -1 175 -10 87 -14 100 -30 100 -16 0 -19 -8 -19 -50z"/>
<path d="M1383 563 c4 -26 9 -84 13 -127 l7 -79 28 34 c16 19 29 43 29 54 0
14 3 16 8 7 6 -9 14 -6 31 12 l23 24 -22 61 c-18 47 -27 61 -43 61 -17 0 -19
-5 -14 -37 16 -95 15 -103 -2 -38 -15 59 -21 71 -41 73 -22 4 -23 2 -17 -45z"/>
<path d="M1574 589 c8 -12 12 -29 9 -38 -4 -12 -1 -11 16 5 27 25 19 54 -16
54 -23 0 -23 -1 -9 -21z"/>
<path d="M1620 600 c0 -5 5 -10 10 -10 6 0 10 5 10 10 0 6 -4 10 -10 10 -5 0
-10 -4 -10 -10z"/>
<path d="M1520 521 c9 -17 15 -19 30 -11 22 12 27 24 8 17 -7 -2 -21 0 -31 5
-16 8 -17 7 -7 -11z"/>
<path d="M786 463 c-11 -11 -6 -23 9 -23 8 0 15 4 15 9 0 13 -16 22 -24 14z"/>
<path d="M1302 459 c2 -6 8 -10 13 -10 5 0 11 4 13 10 2 6 -4 11 -13 11 -9 0
-15 -5 -13 -11z"/>
<path d="M780 396 c0 -9 7 -16 16 -16 17 0 14 22 -4 28 -7 2 -12 -3 -12 -12z"/>
<path d="M861 218 c35 -34 99 -96 141 -137 l77 -75 63 69 c35 38 86 94 115
125 29 30 53 60 53 67 0 9 -66 12 -257 12 l-257 1 65 -62z m287 -9 c-2 -20 -9
-24 -35 -24 -18 0 -33 4 -33 9 0 5 -6 4 -12 -1 -7 -5 -23 -10 -35 -11 -19 -1
-23 4 -23 29 0 16 5 29 10 29 6 0 10 -9 10 -20 0 -11 7 -20 15 -20 12 0 13 4
6 19 -9 17 -6 19 30 19 23 1 44 3 47 7 11 10 24 -13 20 -36z m-118 -69 c0 -16
-4 -30 -9 -30 -10 0 -21 47 -13 55 13 13 22 3 22 -25z m120 0 c0 -23 -4 -30
-20 -30 -11 0 -20 6 -21 13 0 10 -2 10 -6 0 -8 -22 -21 -14 -16 10 l5 22 -16
-22 c-23 -30 -31 -29 -34 6 -2 28 -1 28 53 30 55 1 55 1 55 -29z"/>
</g>
</svg>
